<svg xmlns="http://www.w3.org/2000/svg" viewBox="0 0 48 48">
  <path d="M28.5 5C27.125 5 25.903815 5.5696334 25.128906 6.4414062C24.50067 7.148172 24.161368 8.0076133 24.050781 8.8847656L19.267578 9.9882812C19.147072 9.8004639 19.023765 9.6131612 18.871094 9.4414062C18.096185 8.5696335 16.875 8 15.5 8C14.125 8 12.903815 8.5696335 12.128906 9.4414062C11.353997 10.313179 11 11.416667 11 12.5C11 13.583333 11.353997 14.686821 12.128906 15.558594C12.139771 15.570817 12.154976 15.579694 12.166016 15.591797L9.9492188 20.023438C9.8013168 20.009866 9.6520598 20 9.5 20C8.1250003 20 6.9038151 20.569633 6.1289062 21.441406C5.3539974 22.313179 5 23.416667 5 24.5C5 25.583333 5.3539975 26.686821 6.1289062 27.558594C6.9038151 28.430367 8.1250003 29 9.5 29C10.875 29 12.096185 28.430367 12.871094 27.558594C13.100358 27.300671 13.282143 27.018528 13.439453 26.726562L18.101562 27.443359C18.251658 28.204616 18.57951 28.940522 19.128906 29.558594C19.867675 30.389709 21.013959 30.940134 22.310547 30.990234L23.640625 34.982422C23.459326 35.126577 23.27889 35.272675 23.128906 35.441406C22.353997 36.313179 22 37.416667 22 38.5C22 39.583333 22.353997 40.686821 23.128906 41.558594C23.903815 42.430367 25.125 43 26.5 43C27.875 43 29.096185 42.430367 29.871094 41.558594C30.646003 40.686821 31 39.583333 31 38.5C31 38.165394 30.952326 37.83103 30.882812 37.5L35.851562 34.1875C36.57784 34.691193 37.495541 35 38.5 35C39.875 35 41.096185 34.430367 41.871094 33.558594C42.646003 32.686821 43 31.583333 43 30.5C43 29.416667 42.646003 28.313179 41.871094 27.441406C41.415826 26.929229 40.803651 26.526696 40.099609 26.277344L40.099609 21.722656C40.803651 21.473304 41.415826 21.070771 41.871094 20.558594C42.646003 19.686821 43 18.583333 43 17.5C43 16.416667 42.646003 15.313179 41.871094 14.441406C41.096185 13.569633 39.875 13 38.5 13C37.646508 13 36.868143 13.238301 36.203125 13.613281L32.785156 10.878906C32.919935 10.427847 33 9.9633962 33 9.5C33 8.4166668 32.646003 7.3131791 31.871094 6.4414062C31.096185 5.5696334 29.875 5 28.5 5 z M 28.5 8C29.124999 8 29.403816 8.1803665 29.628906 8.4335938C29.853997 8.6868209 30 9.0833332 30 9.5C30 9.9166668 29.853997 10.313179 29.628906 10.566406C29.403816 10.819633 29.124999 11 28.5 11C27.875001 11 27.596184 10.819633 27.371094 10.566406C27.268794 10.451319 27.186393 10.303345 27.123047 10.140625 A 1.60016 1.60016 0 0 0 27.007812 9.5957031C27.006067 9.5634995 27 9.5325075 27 9.5C27 9.0833332 27.146003 8.6868209 27.371094 8.4335938C27.596184 8.1803665 27.875001 8 28.5 8 z M 15.5 11C16.124999 11 16.403816 11.180367 16.628906 11.433594C16.747196 11.566669 16.841355 11.741199 16.90625 11.935547 A 1.6004407 1.6004407 0 0 0 16.984375 12.318359C16.990565 12.378795 17 12.43828 17 12.5C17 12.916667 16.853997 13.313179 16.628906 13.566406C16.403816 13.819633 16.124999 14 15.5 14C14.875001 14 14.596184 13.819633 14.371094 13.566406C14.146003 13.313179 14 12.916667 14 12.5C14 12.083333 14.146003 11.686821 14.371094 11.433594C14.596184 11.180367 14.875001 11 15.5 11 z M 24.732422 12.011719C24.852928 12.199536 24.976235 12.386839 25.128906 12.558594C25.903815 13.430367 27.125 14 28.5 14C29.353492 14 30.131857 13.761699 30.796875 13.386719L34.214844 16.121094C34.080065 16.572153 34 17.036604 34 17.5C34 18.583333 34.353997 19.686821 35.128906 20.558594C35.584174 21.070771 36.196349 21.473304 36.900391 21.722656L36.900391 26.277344C36.196349 26.526696 35.584174 26.929229 35.128906 27.441406C34.353997 28.313179 34 29.416667 34 30.5C34 30.834606 34.047674 31.16897 34.117188 31.5L29.148438 34.8125C28.468527 34.340964 27.619538 34.045704 26.689453 34.009766L25.359375 30.019531C25.541074 29.875153 25.720825 29.727646 25.871094 29.558594C26.646003 28.686821 27 27.583333 27 26.5C27 25.416667 26.646003 24.313179 25.871094 23.441406C25.096185 22.569633 23.875 22 22.5 22C21.125 22 19.903815 22.569633 19.128906 23.441406C18.899039 23.700007 18.716132 23.982585 18.558594 24.275391L13.898438 23.558594C13.748525 22.796676 13.420936 22.059979 12.871094 21.441406C12.860229 21.429183 12.845024 21.420306 12.833984 21.408203L15.050781 16.976562C15.198683 16.990134 15.34794 17 15.5 17C16.875 17 18.096185 16.430367 18.871094 15.558594C19.499291 14.851872 19.836656 13.99233 19.947266 13.115234L24.732422 12.011719 z M 38.5 16C39.124999 16 39.403816 16.180367 39.628906 16.433594C39.853997 16.686821 40 17.083333 40 17.5C40 17.916667 39.853997 18.313179 39.628906 18.566406C39.403816 18.819633 39.124999 19 38.5 19C37.875001 19 37.596184 18.819633 37.371094 18.566406C37.146003 18.313179 37 17.916667 37 17.5C37 17.083333 37.146003 16.686821 37.371094 16.433594C37.596184 16.180367 37.875001 16 38.5 16 z M 9.5 23C10.124999 23 10.403816 23.180367 10.628906 23.433594C10.853997 23.686821 11 24.083333 11 24.5C11 24.916667 10.853997 25.313179 10.628906 25.566406C10.403816 25.819633 10.124999 26 9.5 26C8.8750006 26 8.5961843 25.819633 8.3710938 25.566406C8.146003 25.313179 8 24.916667 8 24.5C8 24.083333 8.1460031 23.686821 8.3710938 23.433594C8.5961843 23.180367 8.8750006 23 9.5 23 z M 22.5 25C23.124999 25 23.403816 25.180367 23.628906 25.433594C23.853997 25.686821 24 26.083333 24 26.5C24 26.916667 23.853997 27.313179 23.628906 27.566406C23.403816 27.819633 23.124999 28 22.5 28C21.875001 28 21.596184 27.819633 21.371094 27.566406C21.146003 27.313179 21 26.916667 21 26.5C21 26.083333 21.146003 25.686821 21.371094 25.433594C21.596184 25.180367 21.875001 25 22.5 25 z M 38.5 29C39.124999 29 39.403816 29.180367 39.628906 29.433594C39.853997 29.686821 40 30.083333 40 30.5C40 30.916667 39.853997 31.313179 39.628906 31.566406C39.403816 31.819633 39.124999 32 38.5 32C37.875001 32 37.596184 31.819633 37.371094 31.566406C37.146003 31.313179 37 30.916667 37 30.5C37 30.083333 37.146003 29.686821 37.371094 29.433594C37.596184 29.180367 37.875001 29 38.5 29 z M 26.5 37C27.124999 37 27.403816 37.180367 27.628906 37.433594C27.853997 37.686821 28 38.083333 28 38.5C28 38.916667 27.853997 39.313179 27.628906 39.566406C27.403816 39.819633 27.124999 40 26.5 40C25.875001 40 25.596184 39.819633 25.371094 39.566406C25.146003 39.313179 25 38.916667 25 38.5C25 38.083333 25.146003 37.686821 25.371094 37.433594C25.596184 37.180367 25.875001 37 26.5 37 z" fill="#5B5B5B" />
</svg>