<svg xmlns="http://www.w3.org/2000/svg" viewBox="0 0 48 48">
  <path d="M11.5 6C8.4802259 6 6 8.4802259 6 11.5L6 36.5C6 39.519774 8.4802259 42 11.5 42L36.5 42C39.519774 42 42 39.519774 42 36.5L42 11.5C42 8.4802259 39.519774 6 36.5 6L11.5 6 z M 38.273438 9.7265625C38.723659 10.176784 39 10.800887 39 11.5L39 36.5C39 37.898226 37.898226 39 36.5 39L11.5 39C10.800887 39 10.176784 38.723659 9.7265625 38.273438L16.935547 31.064453C18.747411 32.876318 21.247459 34 24 34C29.505083 34 34 29.505079 34 24C34 21.24746 32.876318 18.747412 31.064453 16.935547L38.273438 9.7265625 z M 24 17C25.941882 17 27.692502 17.778439 28.957031 19.042969L19.042969 28.957031C17.778439 27.692501 17 25.941881 17 24C17 20.116238 20.116236 17 24 17 z" fill="#5B5B5B" />
</svg>