<svg xmlns="http://www.w3.org/2000/svg" viewBox="0 0 48 48">
  <path d="M24 4C12.972292 4 4 12.972292 4 24C4 35.027708 12.972292 44 24 44C35.027708 44 44 35.027708 44 24C44 12.972292 35.027708 4 24 4 z M 24 7C33.406292 7 41 14.593708 41 24C41 33.406292 33.406292 41 24 41C14.593708 41 7 33.406292 7 24C7 14.593708 14.593708 7 24 7 z M 19 16C17.895 16 17 16.895 17 18L17 30C17 31.105 17.895 32 19 32C20.105 32 21 31.105 21 30L21 18C21 16.895 20.105 16 19 16 z M 29 16C27.895 16 27 16.895 27 18L27 30C27 31.105 27.895 32 29 32C30.105 32 31 31.105 31 30L31 18C31 16.895 30.105 16 29 16 z" fill="#5B5B5B" />
</svg>