<?xml version="1.0" encoding="utf-8"?>
<svg xmlns="http://www.w3.org/2000/svg" viewBox="0 0 48 48" width="144" height="144">
  <path d="M26.5 5C24.927377 5 23.488405 5.6404495 22.445312 6.6796875C21.40222 7.7189255 20.693107 9.0848981 20.111328 10.671875C18.94777 13.845829 18.288953 18.003745 17.482422 22.748047C16.714919 27.2612 15.906292 30.295662 15.039062 31.994141C14.171835 33.69262 13.62159 34 12.5 34 A 1.50015 1.50015 0 1 0 12.5 37C14.64941 37 16.553415 35.626396 17.710938 33.359375C18.868458 31.092354 19.654909 27.8768 20.441406 23.251953C21.249875 18.496255 21.937542 14.404171 22.927734 11.703125C23.42283 10.352602 23.992202 9.3748245 24.564453 8.8046875C25.136705 8.2345505 25.649623 8 26.5 8C27.350377 8 27.863295 8.2345505 28.435547 8.8046875C29.007798 9.3748245 29.57717 10.352602 30.072266 11.703125C31.062458 14.404171 31.750125 18.496255 32.558594 23.251953C33.345082 27.876748 34.131663 31.092313 35.289062 33.359375C36.446462 35.626437 38.350247 37 40.5 37 A 1.50015 1.50015 0 1 0 40.5 34C39.377753 34 38.828038 33.692579 37.960938 31.994141C37.093837 30.295702 36.28509 27.261252 35.517578 22.748047C34.711047 18.003745 34.05223 13.845829 32.888672 10.671875C32.306893 9.0848981 31.59778 7.7189255 30.554688 6.6796875C29.511595 5.6404495 28.072623 5 26.5 5 z M 7.4765625 5.9785156 A 1.50015 1.50015 0 0 0 6 7.5L6 40.5 A 1.50015 1.50015 0 0 0 7.5 42L40.5 42 A 1.50015 1.50015 0 1 0 40.5 39L9 39L9 7.5 A 1.50015 1.50015 0 0 0 7.4765625 5.9785156 z" fill="#FFFFFF" />
</svg>