<svg xmlns="http://www.w3.org/2000/svg" viewBox="0 0 48 48">
  <path d="M7.5 9C4.4802259 9 2 11.480226 2 14.5L2 33.5C2 36.519774 4.4802259 39 7.5 39L30.5 39C33.519774 39 36 36.519774 36 33.5L36 31.150391L43.728516 35.787109 A 1.50015 1.50015 0 0 0 46 34.5L46 13.5 A 1.50015 1.50015 0 0 0 43.728516 12.212891L36 16.849609L36 14.5C36 11.480226 33.519774 9 30.5 9L7.5 9 z M 7.5 12L30.5 12C31.898226 12 33 13.101774 33 14.5L33 19.455078 A 1.50015 1.50015 0 0 0 33 19.5L33 28.5L33 33.5C33 34.898226 31.898226 36 30.5 36L7.5 36C6.1017741 36 5 34.898226 5 33.5L5 14.5C5 13.101774 6.1017741 12 7.5 12 z M 18.908203 14C18.375203 14 17.85275 14.044859 17.34375 14.130859L17.029297 15.433594C16.541297 17.455594 14.459844 18.657359 12.464844 18.068359L11.369141 17.744141C10.710141 18.592141 10.183359 19.555656 9.8183594 20.597656L10.632812 21.380859C12.119813 22.811859 12.119813 25.190094 10.632812 26.621094L9.8183594 27.402344C10.183359 28.445344 10.710141 29.407859 11.369141 30.255859L12.464844 29.933594C14.459844 29.343594 16.541297 30.545359 17.029297 32.568359L17.34375 33.869141C17.85375 33.954141 18.375203 34 18.908203 34C19.441203 34 19.964609 33.955141 20.474609 33.869141L20.789062 32.566406C21.277062 30.543406 23.358516 29.342641 25.353516 29.931641L26.447266 30.255859C27.106266 29.407859 27.633047 28.444344 27.998047 27.402344L27.185547 26.619141C25.699547 25.189141 25.7005 22.810859 27.1875 21.380859L28 20.597656C27.635 19.554656 27.108219 18.592141 26.449219 17.744141L25.355469 18.066406C23.360469 18.656406 21.277062 17.454641 20.789062 15.431641L20.476562 14.130859C19.966563 14.045859 19.442203 14 18.908203 14 z M 43 16.150391L43 31.849609L36 27.650391L36 20.349609L43 16.150391 z M 18.908203 21C20.565203 21 21.908203 22.343 21.908203 24C21.908203 25.657 20.565203 27 18.908203 27C17.251203 27 15.908203 25.657 15.908203 24C15.908203 22.343 17.251203 21 18.908203 21 z" fill="#FFFFFF" />
</svg>