<svg xmlns="http://www.w3.org/2000/svg" viewBox="0 0 48 48">
  <path d="M26.5 4.0019531C26.5 4.0019531 21.60716 3.9884072 16.619141 5.3007812C14.125131 5.9569685 11.574816 6.9339488 9.5390625 8.5410156C7.5033088 10.148082 6 12.525 6 15.5C6 18 7.2519531 19.832031 8.2519531 21.332031C9.2519531 22.832031 10 24 10 25.5C10 27 9.3125438 27.832215 8.2871094 29.242188C7.2616749 30.652159 6 32.6 6 35.5C6 40.25 9.6679688 42.748047 9.6679688 42.748047 A 1.50015 1.50015 0 1 0 11.332031 40.251953C11.332031 40.251953 9 38.75 9 35.5C9 33.4 9.7383247 32.34784 10.712891 31.007812C11.687456 29.667785 13 28 13 25.5C13 23 11.748047 21.167969 10.748047 19.667969C9.7480468 18.167969 9 17 9 15.5C9 13.475 9.8716907 12.10173 11.398438 10.896484C12.925183 9.6912391 15.124869 8.7947347 17.380859 8.2011719C21.89284 7.0140461 26.5 7.0019531 26.5 7.0019531 A 1.50015 1.50015 0 1 0 26.5 4.0019531 z M 38.173828 14.009766C36.935726 14.009766 35.697674 14.478108 34.761719 15.414062L16.546875 33.628906C16.219096 33.95444 15.979947 34.360452 15.853516 34.804688L15.853516 34.806641C15.853516 34.806641 15.851562 34.808594 15.851562 34.808594L14.058594 41.087891 A 1.50015 1.50015 0 0 0 15.912109 42.941406L22.195312 41.146484 A 1.50015 1.50015 0 0 0 22.197266 41.146484C22.638106 41.019576 23.041753 40.782465 23.367188 40.457031L38.351562 25.472656L39.703125 26.826172C40.088317 27.210962 40.089214 27.789693 39.703125 28.175781L33.439453 34.439453 A 1.50015 1.50015 0 1 0 35.560547 36.560547L41.824219 30.296875C43.355731 28.765363 43.355828 26.236409 41.824219 24.705078L41.824219 24.703125L40.472656 23.351562L41.585938 22.238281C43.457862 20.366356 43.457862 17.285988 41.585938 15.414062C40.649982 14.478108 39.41193 14.009766 38.173828 14.009766 z M 38.173828 16.992188C38.638226 16.992188 39.102799 17.173112 39.464844 17.535156C40.190919 18.261231 40.190919 19.391113 39.464844 20.117188L21.296875 38.285156L17.683594 39.316406L18.714844 35.703125L36.882812 17.535156C37.244858 17.173112 37.70943 16.992187 38.173828 16.992188 z" fill="#FFFFFF" />
</svg>