<?xml version="1.0" encoding="utf-8"?>
<svg xmlns="http://www.w3.org/2000/svg" viewBox="0 0 48 48" width="144" height="144">
  <path d="M13 13C6.9424416 13 2 17.942442 2 24C2 30.057558 6.9424416 35 13 35L17.5 35 A 1.50015 1.50015 0 1 0 17.5 32L13 32C8.5635584 32 5 28.436442 5 24C5 19.563558 8.5635584 16 13 16L17.5 16 A 1.50015 1.50015 0 1 0 17.5 13L13 13 z M 30.5 13 A 1.50015 1.50015 0 1 0 30.5 16L35 16C39.436442 16 43 19.563558 43 24C43 28.436442 39.436442 32 35 32L30.5 32 A 1.50015 1.50015 0 1 0 30.5 35L35 35C41.057558 35 46 30.057558 46 24C46 17.942442 41.057558 13 35 13L30.5 13 z M 11.5 22.5 A 1.50015 1.50015 0 1 0 11.5 25.5L36.5 25.5 A 1.50015 1.50015 0 1 0 36.5 22.5L11.5 22.5 z" fill="#FFFFFF" />
</svg>