<?xml version="1.0" encoding="utf-8"?>
<svg xmlns="http://www.w3.org/2000/svg" viewBox="0 0 50 50" width="500" height="500">
  <path d="M25 4C18.9375 4 14 8.9375 14 15L14 20.84375C11.527344 23.519531 10 27.078125 10 31C10 39.273438 16.726563 46 25 46C33.273438 46 40 39.273438 40 31C40 22.726563 33.273438 16 25 16C21.621094 16 18.511719 17.136719 16 19.03125L16 15C16 10.015625 20.015625 6 25 6C29.382813 6 33.027344 9.121094 33.84375 13.25C33.867188 13.640625 34.121094 13.980469 34.484375 14.121094C34.851563 14.261719 35.265625 14.175781 35.542969 13.898438C35.824219 13.625 35.914063 13.210938 35.78125 12.84375C34.78125 7.792969 30.332031 4 25 4 Z M 25 18C32.191406 18 38 23.808594 38 31C38 38.191406 32.191406 44 25 44C17.808594 44 12 38.191406 12 31C12 23.808594 17.808594 18 25 18 Z M 25 28C23.34375 28 22 29.34375 22 31C22 32.300781 22.839844 33.398438 24 33.8125L24 37L26 37L26 33.8125C27.160156 33.398438 28 32.300781 28 31C28 29.34375 26.65625 28 25 28Z" fill="#FFFFFF" />
</svg>