<svg xmlns="http://www.w3.org/2000/svg" viewBox="0 0 48 48">
  <path d="M20.470703 5C18.880703 5 17.389844 5.8604687 16.589844 7.2304688L14.390625 11L10.5 11C6.92 11 4 13.92 4 17.5L4 36.5C4 40.08 6.92 43 10.5 43L29.650391 43C28.210391 42.3 26.959766 41.27 26.009766 40L10.5 40C8.57 40 7 38.43 7 36.5L7 17.5C7 15.57 8.57 14 10.5 14L15.25 14C15.78 14 16.280781 13.719766 16.550781 13.259766L19.179688 8.7402344C19.449687 8.2902344 19.940703 8 20.470703 8L27.529297 8C28.059297 8 28.550313 8.2902344 28.820312 8.7402344L31.449219 13.259766C31.719219 13.719766 32.22 14 32.75 14L37.5 14C39.43 14 41 15.57 41 17.5L41 26.859375C42.626 28.459375 43.710219 30.609 43.949219 33L44 33L44 17.5C44 13.92 41.08 11 37.5 11L33.609375 11L31.410156 7.2304688C30.610156 5.8604687 29.119297 5 27.529297 5L20.470703 5 z M 24 17C19.04 17 15 21.04 15 26C15 30.96 19.04 35 24 35L24.050781 35C24.020781 34.67 24 34.34 24 34C24 33.31 24.069219 32.640234 24.199219 31.990234C24.139219 32.000234 24.07 32 24 32C20.69 32 18 29.31 18 26C18 22.69 20.69 20 24 20C26.93 20 29.380625 22.110625 29.890625 24.890625C30.790625 24.480625 31.759062 24.200078 32.789062 24.080078C31.909063 20.040078 28.3 17 24 17 z M 34 26C29.589 26 26 29.589 26 34C26 38.411 29.589 42 34 42C35.665 42 37.210187 41.487281 38.492188 40.613281L43.439453 45.560547C43.732453 45.854547 44.116 46 44.5 46C44.884 46 45.267547 45.853547 45.560547 45.560547C46.145547 44.974547 46.145547 44.025453 45.560547 43.439453L40.615234 38.492188C41.488234 37.210187 42 35.665 42 34C42 29.589 38.411 26 34 26 z M 34 29C36.757 29 39 31.243 39 34C39 36.757 36.757 39 34 39C31.243 39 29 36.757 29 34C29 31.243 31.243 29 34 29 z" fill="#5B5B5B" />
</svg>