<?xml version="1.0" encoding="utf-8"?>
<svg xmlns="http://www.w3.org/2000/svg" viewBox="0 0 48 48" width="144" height="144">
  <path d="M8.5 7C5.4802259 7 3 9.4802259 3 12.5L3 35.5C3 38.519774 5.4802259 41 8.5 41L39.5 41C42.519774 41 45 38.519774 45 35.5L45 12.5C45 9.4802259 42.519774 7 39.5 7L8.5 7 z M 8.5 10L39.5 10C40.898226 10 42 11.101774 42 12.5L42 35.5C42 36.898226 40.898226 38 39.5 38L8.5 38C7.1017741 38 6 36.898226 6 35.5L6 12.5C6 11.101774 7.1017741 10 8.5 10 z M 19 20C18.448 20 18 20.448 18 21L18 27C18 27.552 18.448 28 19 28C19.552 28 20 27.552 20 27L20 26L21 26L22.199219 27.599609C22.396219 27.861609 22.697953 28 23.001953 28C23.209953 28 23.419609 27.935781 23.599609 27.800781C24.041609 27.469781 24.131781 26.842391 23.800781 26.400391L22.947266 25.263672C23.586266 24.712672 24 23.908 24 23C24 21.346 22.654 20 21 20L19 20 z M 27 20C26.448 20 26 20.448 26 21L26 27C26 27.552 26.448 28 27 28L30 28C30.552 28 31 27.552 31 27C31 26.448 30.552 26 30 26L28 26L28 25L29.5 25C30.052 25 30.5 24.552 30.5 24C30.5 23.448 30.052 23 29.5 23L28 23L28 22L30 22C30.552 22 31 21.552 31 21C31 20.448 30.552 20 30 20L27 20 z M 35.292969 20C33.477969 20 32 21.794 32 24C32 26.206 33.477969 28 35.292969 28C36.738969 28 37.604672 27.019453 37.888672 26.439453C38.130672 25.943453 37.924734 25.343563 37.427734 25.101562C36.931734 24.859562 36.333797 25.064547 36.091797 25.560547C36.089797 25.564547 35.851969 26 35.292969 26C34.604969 26 34 25.065 34 24C34 22.935 34.604969 22 35.292969 22C35.815969 22 36.052609 22.373078 36.099609 22.455078C36.346609 22.938078 36.937734 23.139437 37.427734 22.898438C37.924734 22.656437 38.130672 22.056547 37.888672 21.560547C37.605672 20.980547 36.739969 20 35.292969 20 z M 13 21 A 3 3 0 0 0 13 27 A 3 3 0 0 0 13 21 z M 20 22L21 22C21.551 22 22 22.449 22 23C22 23.551 21.551 24 21 24L20 24L20 22 z" fill="#FFFFFF" />
</svg>