<?xml version="1.0" encoding="utf-8"?>
<svg xmlns="http://www.w3.org/2000/svg" viewBox="0 0 48 48" width="144" height="144">
  <path d="M16.501953 3.9824219 A 1.50015 1.50015 0 0 0 15.328125 6.4375L19.328125 11.4375 A 1.5007322 1.5007322 0 1 0 21.671875 9.5625L17.671875 4.5625 A 1.50015 1.50015 0 0 0 16.501953 3.9824219 z M 31.453125 3.984375 A 1.50015 1.50015 0 0 0 30.328125 4.5625L26.328125 9.5625 A 1.5007322 1.5007322 0 1 0 28.671875 11.4375L32.671875 6.4375 A 1.50015 1.50015 0 0 0 31.453125 3.984375 z M 12 14C6.4951777 14 2 18.495178 2 24C2 29.504822 6.4951777 34 12 34L17.5 34 A 1.50015 1.50015 0 1 0 17.5 31L12 31C8.1168223 31 5 27.883178 5 24C5 20.116822 8.1168223 17 12 17L17.5 17 A 1.50015 1.50015 0 1 0 17.5 14L12 14 z M 30.5 14 A 1.50015 1.50015 0 1 0 30.5 17L36 17C39.883178 17 43 20.116822 43 24C43 27.883178 39.883178 31 36 31L30.5 31 A 1.50015 1.50015 0 1 0 30.5 34L36 34C41.504822 34 46 29.504822 46 24C46 18.495178 41.504822 14 36 14L30.5 14 z M 27.501953 35.982422 A 1.50015 1.50015 0 0 0 26.328125 38.4375L30.328125 43.4375 A 1.5007322 1.5007322 0 1 0 32.671875 41.5625L28.671875 36.5625 A 1.50015 1.50015 0 0 0 27.501953 35.982422 z M 20.453125 35.984375 A 1.50015 1.50015 0 0 0 19.328125 36.5625L15.328125 41.5625 A 1.5007322 1.5007322 0 1 0 17.671875 43.4375L21.671875 38.4375 A 1.50015 1.50015 0 0 0 20.453125 35.984375 z" fill="#FFFFFF" />
</svg>