<?xml version="1.0" encoding="utf-8"?>
<svg xmlns="http://www.w3.org/2000/svg" viewBox="0 0 48 48" width="144" height="144">
  <path d="M19.4375 6C17.097854 6 15.002245 7.4927384 14.238281 9.7050781L13.445312 12L9.1074219 12C5.7518128 12 3 14.751813 3 18.107422L3 34.892578C3 38.248187 5.7518128 41.001953 9.1074219 41.001953L37.892578 41.001953C41.248187 41.001953 44.001953 38.248187 44.001953 34.892578L44.001953 18.107422C44.000635 14.752132 41.248187 12 37.892578 12L34.474609 12L33.681641 9.7050781L33.679688 9.703125C32.91617 7.4914967 30.821166 6 28.482422 6L19.4375 6 z M 19.4375 9L28.482422 9C29.554776 9 30.496535 9.6706282 30.845703 10.683594L31.988281 13.990234 A 1.50015 1.50015 0 0 0 33.40625 15L37.892578 15C39.626969 15 41.001272 16.374665 41.001953 18.109375L41.001953 34.892578C41.001953 36.626969 39.626969 38.001953 37.892578 38.001953L9.1074219 38.001953C7.3730309 38.001953 6 36.626969 6 34.892578L6 18.107422C6 16.373031 7.3730309 15 9.1074219 15L14.515625 15 A 1.50015 1.50015 0 0 0 15.933594 13.990234L17.074219 10.683594C17.424255 9.6699332 18.365146 9 19.4375 9 z M 24 17C19.047202 17 15 21.047206 15 26C15 30.952794 19.047202 35 24 35C28.952798 35 33 30.952794 33 26C33 21.047206 28.952798 17 24 17 z M 24 20C27.331479 20 30 22.668523 30 26C30 29.331477 27.331479 32 24 32C20.668521 32 18 29.331477 18 26C18 22.668523 20.668521 20 24 20 z" fill="#FFFFFF" />
</svg>