<?xml version="1.0" encoding="utf-8"?>
<svg xmlns="http://www.w3.org/2000/svg" viewBox="0 0 16 16" width="96" height="96">
  <path d="M8 1C5.796875 1 4 2.796875 4 5L4 6L3.5 6C2.675781 6 2 6.675781 2 7.5L2 12.5C2 13.324219 2.675781 14 3.5 14L12.5 14C13.324219 14 14 13.324219 14 12.5L14 7.5C14 6.675781 13.324219 6 12.5 6L12 6L12 5C12 2.796875 10.203125 1 8 1 Z M 8 2C9.664063 2 11 3.335938 11 5L11 6L5 6L5 5C5 3.335938 6.335938 2 8 2 Z M 3.5 7L12.5 7C12.78125 7 13 7.21875 13 7.5L13 12.5C13 12.78125 12.78125 13 12.5 13L3.5 13C3.21875 13 3 12.78125 3 12.5L3 7.5C3 7.21875 3.21875 7 3.5 7Z" fill="#FFFFFF" />
</svg>