<svg xmlns="http://www.w3.org/2000/svg" viewBox="0 0 48 48">
  <path d="M10.5 9C6.9280619 9 4 11.928062 4 15.5L4 32.5C4 36.071938 6.9280619 39 10.5 39L27.5 39C31.071938 39 34 36.071938 34 32.5L34 31.150391L41.728516 35.787109 A 1.50015 1.50015 0 0 0 44 34.5L44 13.5 A 1.50015 1.50015 0 0 0 42.455078 12 A 1.50015 1.50015 0 0 0 41.728516 12.212891L34 16.849609L34 15.5C34 11.928062 31.071938 9 27.5 9L10.5 9 z M 10.5 12L27.5 12C29.450062 12 31 13.549938 31 15.5L31 19.453125L31 28.482422L31 32.5C31 34.450062 29.450062 36 27.5 36L10.5 36C8.5499381 36 7 34.450062 7 32.5L7 15.5C7 13.549938 8.5499381 12 10.5 12 z M 41 16.150391L41 31.849609L34 27.650391L34 20.349609L41 16.150391 z M 19 19C16.243 19 14 21.243 14 24C14 26.757 16.243 29 19 29C21.757 29 24 26.757 24 24C24 21.243 21.757 19 19 19 z" fill="#5B5B5B" />
</svg>